<?xml version="1.0" encoding="UTF-8" standalone="no"?><svg id="Calque_1" data-name="Calque 1" xmlns="http://www.w3.org/2000/svg" viewBox="0 0 141.73 57.47"><defs><style>.cls-1{fill:#26231e;}.cls-2{fill:#ffe800;}.cls-3{fill:#ffe900;}</style></defs><title>999</title><path class="cls-1" d="M140.74,4.52A3.53,3.53,0,0,0,137.22,1H4.52A3.55,3.55,0,0,0,1,4.52V53a3.54,3.54,0,0,0,3.53,3.53H137.21A3.54,3.54,0,0,0,140.74,53Z"/><path class="cls-2" d="M141.73,4.52A4.52,4.52,0,0,0,137.22,0H4.52A4.53,4.53,0,0,0,0,4.52V53a4.53,4.53,0,0,0,4.52,4.52H137.21A4.53,4.53,0,0,0,141.73,53Zm-4.52,52H4.52A3.54,3.54,0,0,1,1,53V4.52A3.55,3.55,0,0,1,4.52,1h132.7a3.53,3.53,0,0,1,3.52,3.53V53A3.54,3.54,0,0,1,137.21,56.48Z"/><path class="cls-3" d="M48,33.6l2.13-7.73q1.51-5.51,6.74-5.51H68.63q4.07,0,4.07,3.19a8.88,8.88,0,0,1-.36,2.31L70.21,33.6q-1.51,5.52-6.73,5.51H51.68q-4.07,0-4.06-3.19A8.89,8.89,0,0,1,48,33.6m10.32-8.94L55.51,34.8a2.15,2.15,0,0,0-.06.44c0,.51.42.77,1.26.77h3.41A1.73,1.73,0,0,0,62,34.8L64.8,24.66a2,2,0,0,0,.06-.44c0-.5-.43-.76-1.29-.76H60.15q-1.55,0-1.86,1.2"/><polygon class="cls-3" points="62.97 18.28 57.52 18.28 58.55 14.47 64 14.47 62.97 18.28"/><polygon class="cls-3" points="70.32 18.28 64.84 18.28 65.87 14.47 71.35 14.47 70.32 18.28"/><path class="cls-3" d="M83.34,36h6.58a8.37,8.37,0,0,0,3.58-.62l-1.71,3.72H74a9,9,0,0,0,1.52-3.22l3.38-12.31a6.72,6.72,0,0,0,.26-3.22h9.16a8.56,8.56,0,0,0-1.55,3.22Z"/><path class="cls-3" d="M20,35.89l3.38-12.31a6.72,6.72,0,0,0,.26-3.22H40.53q4.48,0,4.48,2.52a5.64,5.64,0,0,1-.19,1.34l-.61,2.14a3.4,3.4,0,0,1-1.78,2.32,10.94,10.94,0,0,1-3.51.67v.06a13.68,13.68,0,0,1,3,.59,1.29,1.29,0,0,1,.9,1.26,3,3,0,0,1-.16.88l-.84,3.11A4.68,4.68,0,0,1,40,38a8.07,8.07,0,0,1-4.61,1.08H18.48A9,9,0,0,0,20,35.89M29.22,31l-1.39,5h4.58a2.33,2.33,0,0,0,1.09-.2A1.27,1.27,0,0,0,34,35l.8-2.93a1.73,1.73,0,0,0,.1-.53c0-.35-.36-.53-1.1-.53Zm2.06-7.5-1.19,4.4h4.57a2.32,2.32,0,0,0,1.07-.19,1.42,1.42,0,0,0,.51-.87l.62-2.28A2.08,2.08,0,0,0,37,24c0-.35-.36-.53-1.09-.53Z"/><path class="cls-3" d="M116.44,25.89,120,35.27a15.1,15.1,0,0,0,1.93,3.84h-9.67l-2.42-7.94-2.42,1.9-.77,2.82a6.41,6.41,0,0,0-.23,3.22H97.23a9,9,0,0,0,1.51-3.22l3.39-12.31a6.84,6.84,0,0,0,.26-3.22h9.15A8.87,8.87,0,0,0,110,23.58l-1.42,5.19,6.94-5.69a4.67,4.67,0,0,0,1.67-2,4.22,4.22,0,0,0,.13-.7h7.19c-.71.31-1.21.55-1.51.7a14.88,14.88,0,0,0-1.71,1.14Z"/></svg>