<?xml version="1.0" encoding="UTF-8" standalone="no"?><svg id="ef25c22a-b67c-456a-bd81-32fca099effa" data-name="Calque 1" xmlns="http://www.w3.org/2000/svg" viewBox="0 0 141.73 33.03"><title>030</title><path d="M17.53,22.61c0-1.81-1.34-3.07-4.15-3.07H7.75v6.19h5.77C15.87,25.73,17.53,24.89,17.53,22.61Zm-1-12.28a2.83,2.83,0,0,0-3-3H7.75v5.86h5.63A3,3,0,0,0,16.52,10.33Zm9.41,13.16c0,5.31-4.89,8.8-9.83,8.8H0V.79H14.76c5.68,0,9.78,2.84,9.78,8.65a6.83,6.83,0,0,1-4.33,6.47A7.77,7.77,0,0,1,25.93,23.49Z" style="fill:#e30613;fill-rule:evenodd"/><path d="M49.38,16.52c0-4.93-2.26-8.94-6.74-8.94S36,11.59,36,16.52s2.22,9,6.69,9S49.38,21.49,49.38,16.52Zm7.75,0C57.13,25.77,51.82,33,42.64,33S28.16,25.77,28.16,16.52,33.51,0,42.64,0,57.13,7.3,57.13,16.52Z" style="fill:#e30613;fill-rule:evenodd"/><path d="M83.53,22.75C83.53,29.68,77.26,33,71.35,33c-6.83,0-10.33-2.6-13.1-5.91l5-4.93a9.9,9.9,0,0,0,8,4c2.54,0,4.24-1.26,4.24-3.12S74,20.5,69.87,19.63l-1.1-.23c-5-1-9-3.86-9-9.49,0-6.19,5-9.91,11.67-9.91A14.7,14.7,0,0,1,82.88,4.93L78,9.77a9,9,0,0,0-6.46-2.93c-1.79,0-3.82.84-3.82,2.93,0,1.91,2.11,2.6,4.79,3.16l1.11.24C78.1,14.11,83.53,15.49,83.53,22.75Z" style="fill:#e30613;fill-rule:evenodd"/><path d="M112.84,26.19c-3.23,4.66-6.23,6.84-12.46,6.84-8.85,0-14.57-7.35-14.57-16.7C85.81,7.44,91,.05,100.48.05c5.21,0,8.94,2,12.13,6.84l-6.37,4.23c-1.29-2.23-2.95-3.54-5.72-3.54-3.5,0-6.87,3.14-6.87,8.75,0,6.29,3.64,9.16,7.1,9.16,3,0,4.38-1.48,5.68-3.62Z" style="fill:#e30613;fill-rule:evenodd"/><polygon points="141.73 32.29 133.43 32.29 133.43 19.87 123.88 19.87 123.88 32.29 115.62 32.29 115.62 0.79 123.88 0.79 123.88 12.38 133.43 12.38 133.43 0.79 141.73 0.79 141.73 32.29" style="fill:#e30613;fill-rule:evenodd"/></svg>