<?xml version="1.0" encoding="UTF-8" standalone="no"?><svg id="Calque_1" data-name="Calque 1" xmlns="http://www.w3.org/2000/svg" viewBox="0 0 112.29 24.42"><defs><style>.cls-1{fill:#19213b;}.cls-2{fill:#f7aa22;}</style></defs><title>705</title><path class="cls-1" d="M3.08,16.36a1.26,1.26,0,0,0,1.43,1.42H9.25a1.25,1.25,0,0,0,1.42-1.42V10.43A1.25,1.25,0,0,0,9.25,9H4V5.93H9.25q4.5,0,4.5,4.5v5.93q0,4.5-4.5,4.5H4.51Q0,20.86,0,16.36V0H3.08Z"/><path class="cls-2" d="M17.72,24.42H14.63l2.88-14q.91-4.5,5.43-4.5h4.74c3,0,4.2,1.5,3.58,4.5L30,16.36q-.91,4.5-5.43,4.5H19.39L20,17.78h5.22A1.59,1.59,0,0,0,27,16.36l1.22-5.93C28.37,9.48,28,9,27.05,9H22.3a1.59,1.59,0,0,0-1.71,1.42Z"/><path class="cls-2" d="M34.57,20.86H31.49l2.14-10.43q.93-4.5,5.43-4.5H41.2L40.56,9H38.43a1.58,1.58,0,0,0-1.71,1.42Z"/><path class="cls-2" d="M42.17,10.43q.93-4.5,5.43-4.5h4.74q4.52,0,3.58,4.5l-1.22,6q-.91,4.45-5.42,4.45H44.53c-3,0-4.2-1.5-3.58-4.5Zm7.74,7.35a1.56,1.56,0,0,0,1.7-1.37l1.23-6C53,9.48,52.66,9,51.71,9H47a1.6,1.6,0,0,0-1.72,1.42L44,16.36c-.19.95.19,1.42,1.14,1.42Z"/><path class="cls-1" d="M59.54,9l.63-3.08h8.06q4.51,0,3.58,4.5L70.6,16.36q-.93,4.5-5.44,4.5H60.42c-3,0-4.2-1.5-3.58-4.5v-.05q.91-4.45,5.42-4.46h5.22l-.63,3.09H61.64a1.57,1.57,0,0,0-1.71,1.37v.05c-.19.95.19,1.42,1.13,1.42H65.8a1.58,1.58,0,0,0,1.71-1.42l1.22-5.93C68.93,9.48,68.55,9,67.6,9Z"/><path class="cls-1" d="M81.92,17.78a1.57,1.57,0,0,0,1.71-1.37L85.78,5.93h3.09L86.71,16.41q-.92,4.45-5.42,4.45H76.55q-4.51,0-3.58-4.5L75.11,5.93h3.08L76.05,16.36c-.19.95.18,1.42,1.13,1.42Z"/><path class="cls-1" d="M91,5.93h1.19L93.4,0h2.92L95.1,5.93h2.54L97,9H94.47L92,20.86H89.12L91.55,9H90.37Z"/><path class="cls-1" d="M98.37,10.43q.93-4.5,5.44-4.5h4.74c3,0,4.2,1.5,3.58,4.5l-1.23,6q-.91,4.45-5.42,4.45h-4.74q-4.51,0-3.58-4.5Zm7.74,7.35a1.57,1.57,0,0,0,1.71-1.37l1.23-6c.19-.95-.19-1.42-1.13-1.42h-4.75a1.58,1.58,0,0,0-1.71,1.42l-1.22,5.93c-.2.95.18,1.42,1.13,1.42Z"/></svg>