<?xml version="1.0" encoding="UTF-8" standalone="no"?><svg xmlns="http://www.w3.org/2000/svg" viewBox="0 0 45.99 8.36"><path d="M46,6.46H39.77v-.2H46ZM42.88,5.28l.59-.56.24.24-.63.54a1,1,0,0,0-.12.23h-.47a.83.83,0,0,1,.39-.45Zm-2-3.58-.48.13a2.53,2.53,0,0,0-.31.15c-.1.06-.21.17-.21.23l.41.1c.07-.07.14-.15.2-.2l.1,0L41,1.71s0,0,0,0Zm2.82,1.14A7.49,7.49,0,0,1,43,2,2.72,2.72,0,0,0,43.21.7a2.31,2.31,0,0,0-.29-.43C42.86.21,42.68,0,42.59,0h-.05l0,.24c-.25.16-.58.37-.87.59,0,.08,0,.21,0,.26a.48.48,0,0,0,.16.08c.11,0,.47-.1.56-.09l-.35.53-.4.28-.5-.16a.08.08,0,0,0-.08,0l-.37.4a.1.1,0,0,0,0,.08l0,.46v.14a.73.73,0,0,0,.14.48L41.06,3a1.86,1.86,0,0,1-.1-.25s0-.39,0-.39l.23-.17.63.43a3.15,3.15,0,0,0,.34.51,4.89,4.89,0,0,0,.91.65,3.51,3.51,0,0,0,.12.49L44,5l-.45.56c-.16.11-.32.29-.3.46h.52l.06-.3.62-.69a.09.09,0,0,0,0-.11l-.17-.6a1.16,1.16,0,0,0,.28-.67c0-.55-.61-.69-.8-.85Zm1,.92a1.92,1.92,0,0,0-.14-.39s0,0,.08,0l.37.25a4.94,4.94,0,0,1,.28,1.59,2,2,0,0,1-.51-.32Z" style="fill:orange"/><path d="M28.55,3.55c0-.38-.12-.68-.45-.68s-.46.3-.46.68V6.06H28v.4H25.9v-.4h.39V2.6H25.9V2.21h1.67v.65h0a1.2,1.2,0,0,1,1.12-.73A1.1,1.1,0,0,1,29.84,3a3.39,3.39,0,0,1,.06.69V6.06h.51v.4H28.55ZM20,3.55c0-.38-.12-.68-.45-.68s-.46.3-.46.68V6.06h.38v.4H17.31v-.4h.39V2.6h-.39V2.21H19v.65h0a1.2,1.2,0,0,1,1.12-.73A1.1,1.1,0,0,1,21.25,3a4.29,4.29,0,0,1,.06.69V6.06h.51v.4H20ZM32.21,2.6V5.74a.24.24,0,0,0,.27.27.9.9,0,0,0,.25,0v.39a1.63,1.63,0,0,1-.82.16.93.93,0,0,1-1.05-1V2.6h-.45V2.31c.5-.4,1.09-.86,1.55-1.25h.25V2.21h.65V2.6ZM5.66,0s1,1,1.5,1.55V2A3.31,3.31,0,0,0,5,1.1,3.06,3.06,0,0,0,1.84,4.34,3,3,0,0,0,5,7.57a3.05,3.05,0,0,0,2.22-1V7A3.7,3.7,0,0,1,4.12,8.36,4,4,0,0,1,0,4.34a4.06,4.06,0,0,1,4.12-4A4.6,4.6,0,0,1,5.66.57ZM25.28,5.33a1.19,1.19,0,0,1-.94.4c-.38,0-1-.22-1-1.21h2.28c0-.07,0-.23,0-.3,0-1.2-.49-2.09-1.77-2.09a2,2,0,0,0-2,2.21,2,2,0,0,0,2,2.2,1.7,1.7,0,0,0,1.65-1Zm-2-1.22c0-1.12.09-1.54.47-1.54s.47.4.48,1.54ZM4.55,4.32c0-1.29.13-1.87.56-1.87s.57.58.57,1.87S5.55,6.2,5.11,6.2s-.56-.58-.56-1.88M3,4.34a2.15,2.15,0,1,0,4.28,0A2.15,2.15,0,1,0,3,4.34m7.3-.79c0-.38-.12-.68-.45-.68s-.47.3-.47.68V6.06h.39v.4H7.61v-.4H8V2.6h-.4V2.21H9.29v.65h0a1.19,1.19,0,0,1,1.12-.73A1.09,1.09,0,0,1,11.55,3a3.39,3.39,0,0,1,.06.69V6.06h.51v.4H10.27Zm4.82-2.47c0,.38.33.63.82.63s.82-.25.82-.63-.34-.62-.82-.62-.82.25-.82.62M13.92,2.6V5.74A.24.24,0,0,0,14.2,6a.9.9,0,0,0,.25,0v.39a1.7,1.7,0,0,1-.83.16.93.93,0,0,1-1-1V2.6h-.45V2.31c.5-.4,1.09-.86,1.56-1.25h.24V2.21h.53V2.6ZM38.77,6.06h.52v.4H37.43V1H37V.64h1.81Zm-3.59-1.7a.39.39,0,0,0-.29-.09c-.41,0-.49.39-.49.8s.12.73.46.73a.4.4,0,0,0,.32-.13ZM35.24,6h0a1.24,1.24,0,0,1-1.09.59A1.18,1.18,0,0,1,33,5.24a1.39,1.39,0,0,1,1.57-1.39,1.69,1.69,0,0,1,.61.09V3.67a.72.72,0,0,0-.78-.79,1.23,1.23,0,0,0-1,.5l-.23-.29a2,2,0,0,1,1.69-1,1.48,1.48,0,0,1,1.64,1.54V6.06H37v.4H35.24Zm-20.4.51v-.4h.39V2.6h-.39V2.21h1.73V6.06H17v.4Z" style="fill:orange"/></svg>