<?xml version="1.0" encoding="UTF-8" standalone="no"?><svg id="a40a99dd-449d-4e5f-a4cd-356ef6142318" data-name="Calque 1" xmlns="http://www.w3.org/2000/svg" viewBox="0 0 141.72 48.6"><title>241</title><rect y="0.25" width="133.81" height="48.35"/><path d="M122.18,4.73c.14-.76.25-1.52.34-2.3H133.7a21.52,21.52,0,0,1-.24,2.35Z" style="fill:#e30613"/><path d="M122.52,1.5c0-.38.09-.85.09-1.25h11.2c0,.4-.11.87-.11,1.25Z" style="fill:#e30613"/><path d="M121.42,8.31c.29-1,.53-2.08.76-3.08h11.23a21.25,21.25,0,0,1-.65,3Z" style="fill:#e30613"/><path d="M45.59,48.53C90.39,44,115.51,25.76,121.11,8.75h11.34c-6.38,21.74-39.56,39.69-86.86,39.78" style="fill:#e30613"/><path d="M15.89,12.37v24H21V25.56h6.43V21.21a8.26,8.26,0,0,1-1.76.13H21V16.65H28.6V12.37Z" style="fill:#ffdf00"/><path d="M48.71,12.48h5.07l0,19.31h4.91a12,12,0,0,0,2-.14l-.15,4.69H48.67Z" style="fill:#ffdf00"/><path d="M30.61,12.71h5.11V30.19a2.51,2.51,0,1,0,5,0V12.71h5.09V30.19c0,9.89-15.22,9.89-15.22,0Z" style="fill:#ffdf00"/><path d="M62.46,36.32V12.52h2.93c1.34.11,2.16-.53,3,2l4,11.2,4.59-12.77c0-.15.18-.44.72-.44h4.49V36.32H77.65V24.11l-4,12.1h-2l-4.85-12.1V36.32Z" style="fill:#ffdf00"/><path d="M84.5,12.59V36.27H98.25V31.61H89.81V26.05h6.7V21.61a9,9,0,0,1-1.85.13H89.81V17h8.44V12.59Z" style="fill:#ffdf00"/><path d="M99.9,36.27V12.59h2.39c1.92,0,2.48-.36,3.84,2l6.54,11.23V12.59h4.8V36.27h-4.73l-8-12.59V36.27Z" style="fill:#ffdf00"/><line x1="121.03" y1="8.3" x2="132.89" y2="8.3" style="fill:none;stroke:#1d1d1b;stroke-width:0.441px"/><line x1="121.85" y1="4.73" x2="133.71" y2="4.73" style="fill:none;stroke:#1d1d1b;stroke-width:0.441px"/><path d="M138.73.39a2.6,2.6,0,1,0,2.6,2.6A2.6,2.6,0,0,0,138.73.39Z" style="fill:none;stroke:#e30613;stroke-width:0.776px"/><path d="M138.33,2h.78c.25,0,.34.11.34.31a.36.36,0,0,1-.34.42h-.78Zm-.57,2.3h.57V3.22H139c.2,0,.34.1.35.28a5.37,5.37,0,0,0,0,.57.55.55,0,0,0,.07.25H140v-.1c-.06,0-.11-.07-.11-.23a6,6,0,0,0,0-.62.48.48,0,0,0-.31-.38.7.7,0,0,0,.38-.44A1,1,0,0,0,140,2a.66.66,0,0,0-.65-.44h-1.54Z" style="fill:#e30613"/></svg>