<?xml version="1.0" encoding="UTF-8" standalone="no"?><svg id="ed27a246-4506-4fa0-a6f6-8b3e87d70a3d" data-name="Calque 1" xmlns="http://www.w3.org/2000/svg" viewBox="0 0 141.73 22.78"><title>026</title><g id="f46ccf49-4be2-4bb1-995c-14be8cc50ba3" data-name="layer1"><g id="adcd06db-e800-4f7c-9352-e86ba1b1df27" data-name="g4965"><path id="b9f63a4b-843c-4477-b1cf-c7557351c5b3" data-name="path3143" d="M98.61,0s0,5.69,0,5.72h6.67V22.78H112V5.72h6.7s0-5.72,0-5.72H98.61" style="fill:#2d2c79"/><path id="f02e0cb2-af0a-45f2-9eaa-f28df2508aed" data-name="path3145" d="M44.72,22.78C47.93,15.33,51.25,7.58,54.19,0H47L41.09,15c-2-4.77-3.82-10.15-6-15H28.2c2.91,7.65,6,15.33,9.31,22.78h7.21" style="fill:#2d2c79"/><path id="b9bf9977-86bc-4a88-a4b3-cfec044f29e6" data-name="path3149" d="M93.09,14.18l-.17-.27c3-1.66,4.64-5.52,4.1-8.12C95.8,0,90.52,0,89,0H78.09V22.78h6.6V13.3l7.89,9.48h8.09Zm-5.42-3.89h-3V5h3a2.73,2.73,0,0,1,2.88,2.64c0,1.93-2,2.61-2.88,2.61" style="fill:#2d2c79"/><path id="a7e3c908-0053-4b82-bafb-0ad690be224b" data-name="path3151" d="M66.82,0h-7L50.2,22.78h6.74l1.45-3.05h9.72l1.66,3.05h7S70.17,7.41,66.82,0ZM60.66,14.45l2.57-7.24,2.88,7.24H60.66" style="fill:#2d2c79"/><path id="ba63e791-e0fc-4a91-b0ba-467e28bfdd7e" data-name="path3153" d="M131.75,0h-7l-9.61,22.78h6.73l1.46-3.05H133l1.66,3.05h7S135.1,7.41,131.75,0Zm-6.16,14.45,2.57-7.24,2.91,7.24h-5.48" style="fill:#2d2c79"/><path id="bdd89fbe-2c1b-4ccd-9a6a-860faca4d590" data-name="path3157" d="M0,.71h21.3V22.1H0Z" style="fill:#2d2c79"/><path id="e337b92b-77ea-4355-8c1f-84e415e93f78" data-name="path3159" d="M10.66,19.63,0,.71H21.33L10.66,19.63" style="fill:#ffca00"/><path id="b579e8f6-f5aa-42cc-b3a8-7545b879658c" data-name="path3161" d="M10.66,19.63.1.85m21.16,0L10.66,19.63" style="fill:#12110b"/></g></g></svg>